<?xml version="1.0" encoding="UTF-8" standalone="no"?>
<!-- Created with Inkscape (http://www.inkscape.org/) -->

<svg
   xmlns:dc="http://purl.org/dc/elements/1.1/"
   xmlns:cc="http://creativecommons.org/ns#"
   xmlns:rdf="http://www.w3.org/1999/02/22-rdf-syntax-ns#"
   xmlns:svg="http://www.w3.org/2000/svg"
   xmlns="http://www.w3.org/2000/svg"
   xmlns:sodipodi="http://sodipodi.sourceforge.net/DTD/sodipodi-0.dtd"
   xmlns:inkscape="http://www.inkscape.org/namespaces/inkscape"
   width="40"
   height="40"
   id="svg2"
   version="1.1"
   inkscape:version="0.48.4 r9939"
   sodipodi:docname="home_icon.svg">
  <defs
     id="defs4" />
  <sodipodi:namedview
     id="base"
     pagecolor="#ffffff"
     bordercolor="#666666"
     borderopacity="1.0"
     inkscape:pageopacity="0.0"
     inkscape:pageshadow="2"
     inkscape:zoom="11.2"
     inkscape:cx="70.9291"
     inkscape:cy="32.674185"
     inkscape:document-units="px"
     inkscape:current-layer="layer1"
     showgrid="false"
     inkscape:window-width="1920"
     inkscape:window-height="1018"
     inkscape:window-x="-8"
     inkscape:window-y="-8"
     inkscape:window-maximized="1" />
  <metadata
     id="metadata7">
    <rdf:RDF>
      <cc:Work
         rdf:about="">
        <dc:format>image/svg+xml</dc:format>
        <dc:type
           rdf:resource="http://purl.org/dc/dcmitype/StillImage" />
        <dc:title />
      </cc:Work>
    </rdf:RDF>
  </metadata>
  <g
     inkscape:label="Layer 1"
     inkscape:groupmode="layer"
     id="layer1"
     transform="translate(0,-1012.3622)">
    <g
       id="layer1-5"
       inkscape:label="Layer 1"
       transform="matrix(1.3314174,0,0,1.4150147,-14.102514,-431.32783)"
       style="fill:#808080">
      <g
         transform="translate(9.6624314,1019.718)"
         id="layer1-7"
         inkscape:label="Layer 1"
         style="fill:#808080">
        <path
           style="fill:#808080;stroke:#000000;stroke-width:1.30857395999999990px;stroke-linecap:butt;stroke-linejoin:miter;stroke-opacity:1"
           d="M 3.9331267,13.199716 16.111801,3.8899257 28.40929,13.314651 c 3.036031,2.314976 1.659134,5.049856 -1.960472,2.241243 L 16.111801,7.9126706 6.2500452,15.153619 C 2.4059882,17.96939 0.23654103,16.136176 3.9331267,13.199716 z"
           id="path2995"
           inkscape:connector-curvature="0"
           sodipodi:nodetypes="ccccccc" />
        <path
           style="fill:#808080;stroke:#000000;stroke-width:1.18323432999999990px;stroke-linecap:butt;stroke-linejoin:miter;stroke-opacity:1"
           d="m 16.119054,9.8482496 8.665745,6.6033454 -3e-6,10.72383 -5.231151,2e-6 4e-6,-5.863769 -6.023752,-0.105649 -0.05285,5.916596 -5.8652281,3e-6 -3e-7,-11.040791 z"
           id="path2997"
           inkscape:connector-curvature="0"
           sodipodi:nodetypes="cccccccccc" />
      </g>
    </g>
    <path
       style="fill:#333333;fill-opacity:1;stroke-width:11;stroke-linecap:round;stroke-linejoin:round;stroke-miterlimit:4;stroke-dasharray:none"
       d="m 8.1630302,29.999922 0.00179,-8.415178 5.9027789,-4.598214 c 3.246529,-2.529018 5.973314,-4.632457 6.059522,-4.674308 0.125218,-0.06079 1.384364,0.918333 6.260612,4.868301 l 6.103868,4.944393 0.02279,8.145093 0.02279,8.145092 -4.241542,0 -4.241541,0 0,-4.151786 0,-4.151785 -1.23557,0 c -0.679564,0 -2.146082,-0.0265 -3.258929,-0.05889 l -2.023358,-0.05889 0,1.919402 c 0,1.055671 -0.02653,2.950473 -0.05896,4.210671 l -0.05896,2.291269 -4.628542,0 -4.6285418,0 0.00179,-8.415179 z m 22.8553548,-0.106791 0,-7.004112 -5.352112,-4.335173 c -2.943662,-2.384346 -5.404599,-4.332734 -5.46875,-4.329753 -0.06415,0.003 -2.446995,1.822505 -5.295209,4.043384 l -5.1785718,4.037962 -0.022846,7.25126 -0.022846,7.251259 3.1110956,0 3.111095,0 0.05892,-2.879464 c 0.03241,-1.583705 0.05899,-3.476176 0.05907,-4.20549 l 1.5e-4,-1.326026 0.602679,0.05161 c 0.331473,0.02839 2.481026,0.07761 4.776785,0.109389 l 4.174108,0.05778 0,4.140743 0,4.140744 2.723214,0 2.723214,0 0,-7.004113 z"
       id="path3019"
       inkscape:connector-curvature="0"
       transform="translate(0,1012.3622)" />
    <path
       style="fill:#333333;fill-opacity:1;stroke-width:11;stroke-linecap:round;stroke-linejoin:round;stroke-miterlimit:4;stroke-dasharray:none"
       d="m 36.513682,23.640296 c -0.689185,-0.197372 -1.670136,-0.716646 -2.459655,-1.302039 -0.396702,-0.294136 -3.642678,-2.831861 -7.213281,-5.639387 -3.570602,-2.807527 -6.552272,-5.105053 -6.625932,-5.105615 -0.07366,-5.63e-4 -2.974617,2.216892 -6.44657,4.927675 -3.471953,2.710783 -6.64606,5.156211 -7.0535716,5.434285 C 4.2459388,23.639808 2.0303197,23.944881 1.0349075,22.737273 0.0942956,21.596148 0.87785291,19.571611 2.9886195,17.689318 3.7455098,17.014355 20.141488,3.6829581 20.214719,3.6829581 c 0.120834,0 16.829179,13.6583169 17.504416,14.3090699 1.31376,1.266121 1.892514,2.34816 1.897769,3.548073 0.0042,0.969842 -0.365794,1.597088 -1.187093,2.012204 -0.40662,0.20552 -1.353851,0.249018 -1.916129,0.08799 z m 1.24365,-1.685815 c 0.450771,-0.329612 -0.07051,-1.606809 -1.059938,-2.59698 -0.348901,-0.349163 -4.201199,-3.53617 -8.560662,-7.082239 L 20.210436,5.8278644 12.333161,12.222069 c -4.332502,3.516812 -8.1510282,6.660325 -8.4856142,6.985583 -0.757469,0.736351 -1.4024318,1.683778 -1.4652962,2.152467 -0.043138,0.32162 -0.027651,0.35438 0.1938111,0.409964 0.5449279,0.136768 1.9680322,-0.398159 3.1298234,-1.176461 0.34375,-0.230283 3.7093223,-2.825084 7.4790499,-5.766223 3.769727,-2.941139 6.90778,-5.3681445 6.97345,-5.3933445 0.06782,-0.026024 3.317063,2.4681145 7.52095,5.7731205 4.070853,3.200416 7.621351,5.959846 7.889997,6.132066 0.560087,0.359054 1.458477,0.725809 1.793595,0.73221 0.125659,0.0024 0.303141,-0.05024 0.394405,-0.11697 l 0,0 z"
       id="path3021"
       inkscape:connector-curvature="0"
       transform="translate(0,1012.3622)" />
    <path
       style="fill:#808080;fill-opacity:1;stroke-width:11;stroke-linecap:round;stroke-linejoin:round;stroke-miterlimit:4;stroke-dasharray:none"
       d="m 8.1612429,30.02822 0,-8.38688 4.5312501,-3.515536 c 4.406594,-3.418824 6.514895,-5.047436 7.17515,-5.542631 l 0.322471,-0.241856 0.972172,0.739741 c 0.534694,0.406857 2.540064,2.004485 4.456376,3.550284 1.916314,1.5458 4.234336,3.413223 5.151161,4.14983 l 1.666956,1.339286 0.0056,7.410714 c 0.0031,4.075893 0.03143,7.742188 0.06297,8.147322 l 0.05734,0.736607 -4.254305,0 -4.254305,0 0,-4.1388 0,-4.138799 -1.183036,-0.06124 c -0.650669,-0.03368 -1.765625,-0.05634 -2.477678,-0.05035 -0.712054,0.006 -1.641534,-0.01762 -2.065513,-0.05246 l -0.770869,-0.06336 -0.0631,2.176614 c -0.03471,1.197138 -0.04942,2.906108 -0.0327,3.79771 0.01672,0.891601 2.67e-4,1.6024 -0.03657,1.579551 -0.03683,-0.02285 -0.06696,0.181811 -0.06696,0.454799 l -1e-6,0.496341 -4.598214,0 -4.5982141,0 0,-8.386881 z m 22.8571431,-0.16757 0,-7.036594 -1.536957,-1.244656 c -6.651505,-5.386513 -9.153917,-7.360728 -9.330079,-7.360728 -0.04142,0 -0.20728,0.120536 -0.368577,0.267857 -0.161296,0.147322 -0.315159,0.267857 -0.341917,0.267857 -0.07089,0 -1.024422,0.730083 -5.632292,4.312446 l -4.129464,3.210429 0,7.265348 0,7.265349 3.111701,0 3.1117,0 0.06164,-1.245381 c 0.0339,-0.68496 0.05825,-2.382505 0.05411,-3.772322 -0.0041,-1.389817 -0.0058,-2.707744 -0.0038,-2.928726 l 0.0038,-0.401785 1.272398,0.03328 c 0.699818,0.01831 2.337128,0.0489 3.638467,0.06798 1.301339,0.01908 2.878348,0.06034 3.504464,0.09167 l 1.138393,0.05698 0,4.034266 c 0,2.218847 0.02679,4.061053 0.05952,4.09379 0.03274,0.03274 1.258184,0.05953 2.723215,0.05953 l 2.66369,0 0,-7.036594 0,0 z"
       id="path3007"
       inkscape:connector-curvature="0"
       transform="translate(0,1012.3622)" />
    <path
       style="fill:#808080;fill-opacity:1;stroke-width:11;stroke-linecap:round;stroke-linejoin:round;stroke-miterlimit:4;stroke-dasharray:none"
       d="m 36.420171,23.557373 c -0.531475,-0.16911 -1.535271,-0.70096 -2.150081,-1.139195 -0.298616,-0.212853 -2.624367,-2.014238 -5.168334,-4.003077 -2.543967,-1.98884 -4.660135,-3.606027 -4.702597,-3.59375 -0.04246,0.01228 -0.0772,-0.01519 -0.0772,-0.06104 0,-0.107513 -1.075042,-0.95056 -1.174578,-0.921103 -0.04148,0.01228 -0.07542,-0.01551 -0.07542,-0.06175 0,-0.08832 -1.011451,-0.898076 -1.121768,-0.898076 -0.03515,0 -0.10851,-0.05464 -0.163032,-0.121433 -0.05452,-0.06679 -0.432975,-0.369023 -0.841009,-0.671632 l -0.741881,-0.550199 -1.541582,1.15691 c -0.84787,0.636301 -1.679203,1.285467 -1.847405,1.442592 -0.168202,0.157125 -0.325912,0.283935 -0.350466,0.2818 -0.02455,-0.0021 -2.194196,1.652615 -4.821428,3.677222 C 6.3064521,22.207413 6.3478528,22.17729 5.3295871,22.688529 3.4247742,23.644877 1.8026046,23.633743 1.0592998,22.659219 0.5645589,22.010581 0.60455842,21.079673 1.1738069,19.994298 1.777203,18.843814 2.4458858,18.201514 6.5120496,14.866674 10.880841,11.283635 20.09331,3.8282647 20.193937,3.7943386 c 0.07764,-0.026176 0.524686,0.328143 4.976234,3.9440553 8.248609,6.7001961 12.240308,10.0148341 12.916748,10.7258481 0.605955,0.636927 1.101249,1.382797 1.299307,1.956647 0.181937,0.527144 0.199725,1.54542 0.0355,2.032286 -0.138697,0.411186 -0.771086,0.983321 -1.243237,1.124781 -0.450098,0.134853 -1.301126,0.124891 -1.758318,-0.02058 l 0,0 z m 1.461558,-1.75521 c 0.112882,-0.202024 0.109355,-0.288157 -0.02994,-0.730995 -0.08684,-0.276093 -0.235111,-0.58487 -0.329487,-0.686171 -0.09438,-0.1013 -0.146561,-0.184182 -0.115969,-0.184182 0.132801,0 -0.574217,-0.773129 -1.155585,-1.263642 -0.348784,-0.294276 -0.71451,-0.605822 -0.812724,-0.692326 C 34.002204,16.980225 20.481418,5.9432772 20.267423,5.8611599 20.162038,5.82072 16.69117,8.5972191 9.2773143,14.652626 c -2.7574045,2.252162 -4.1523805,3.404346 -4.4642857,3.68729 -0.098214,0.0891 -0.3794643,0.328621 -0.625,0.532282 -0.9857694,0.81765 -1.875106,2.110329 -1.8147215,2.637755 0.025533,0.223015 0.069848,0.256725 0.3699771,0.28144 0.8582595,0.07068 2.8682972,-0.91894 4.0786729,-2.00808 0.073661,-0.06628 0.7466518,-0.586416 1.4955358,-1.155853 C 9.0663768,18.058023 9.6791,17.553937 9.6791,17.507269 c 0,-0.04667 0.034636,-0.06344 0.076968,-0.03728 0.042332,0.02616 0.2532691,-0.115193 0.4687501,-0.314123 0.21548,-0.198929 0.411871,-0.360267 0.436425,-0.358527 0.02455,0.0017 2.133928,-1.608903 4.6875,-3.579209 2.553571,-1.970305 4.685029,-3.6141873 4.736573,-3.6530711 0.117946,-0.088975 1.296249,0.7897401 6.599397,4.9214711 2.30059,1.792411 4.216816,3.248884 4.258282,3.236607 0.04146,-0.01228 0.07539,0.01551 0.07539,0.06175 0,0.103443 1.089853,0.951398 1.18296,0.920397 0.03687,-0.01228 0.06704,0.01193 0.06704,0.05379 0,0.09919 1.026923,0.906029 1.153174,0.906029 0.05325,0 0.09683,0.03397 0.09683,0.07548 0,0.06865 1.385859,1.174517 1.471887,1.174517 0.02022,0 0.149331,0.104577 0.286906,0.232395 0.28112,0.261183 0.919046,0.611624 0.921145,0.506026 7.14e-4,-0.03783 0.03282,-0.01926 0.07127,0.04126 0.111669,0.1758 0.74427,0.374302 1.12988,0.354541 0.277219,-0.01421 0.382138,-0.06798 0.482258,-0.247164 l 0,0 z"
       id="path3009"
       inkscape:connector-curvature="0"
       transform="translate(0,1012.3622)" />
    <path
       style="fill:#808080;fill-opacity:1;stroke-width:11;stroke-linecap:round;stroke-linejoin:round;stroke-miterlimit:4;stroke-dasharray:none"
       d=""
       id="path3011"
       inkscape:connector-curvature="0"
       transform="translate(0,1012.3622)" />
    <path
       style="fill:#808080;fill-opacity:1;stroke-width:11;stroke-linecap:round;stroke-linejoin:round;stroke-miterlimit:4;stroke-dasharray:none"
       d=""
       id="path3013"
       inkscape:connector-curvature="0"
       transform="translate(0,1012.3622)" />
    <path
       style="fill:#999999;fill-opacity:1;stroke-width:11;stroke-linecap:round;stroke-linejoin:round;stroke-miterlimit:4;stroke-dasharray:none"
       d="m 36.202082,23.412478 c -0.878565,-0.315944 -1.838661,-0.98769 -5.789166,-4.050475 -2.146903,-1.664473 -4.385602,-3.38708 -4.974887,-3.828018 -0.589286,-0.440938 -1.233966,-0.9474 -1.432622,-1.125473 -0.198656,-0.178073 -0.540174,-0.454176 -0.758928,-0.613562 -0.218755,-0.159387 -0.57854,-0.432567 -0.799522,-0.607068 -1.336799,-1.055616 -2.137172,-1.647781 -2.227145,-1.647781 -0.105798,0 -1.179942,0.792536 -2.906783,2.144712 C 14.277926,16.061402 6.6697615,21.821051 6.0402951,22.218669 4.6377262,23.104636 3.029065,23.512002 2.0336146,23.233294 0.88591873,22.911959 0.47607645,21.769516 1.0328735,20.443711 1.6761135,18.912073 2.2755804,18.365245 11.732671,10.683465 14.212582,8.6690901 17.135954,6.3056137 18.229054,5.4312954 l 1.987453,-1.5896696 0.333975,0.2507495 c 0.898354,0.6744864 12.588256,10.2061707 15.200047,12.3937777 2.824445,2.365724 3.605007,3.361244 3.71913,4.743341 0.08975,1.086867 -0.252653,1.782576 -1.072672,2.179542 -0.508239,0.246033 -1.515918,0.247614 -2.194905,0.0034 l 0,5e-6 z m 1.644598,-1.512956 c 0.386459,-0.427031 -0.142103,-1.598211 -1.174016,-2.601364 -0.737169,-0.716625 -3.223709,-2.802034 -7.663207,-6.426972 -6.577653,-5.3707824 -8.659438,-7.045371 -8.758541,-7.045371 -0.130092,0 -1.701107,1.2419352 -6.821816,5.392855 -5.9024758,4.784632 -9.066971,7.413986 -9.7321429,8.086363 -0.8226588,0.83157 -1.3558267,1.698411 -1.319805,2.145782 0.023697,0.294305 0.045631,0.314171 0.3767128,0.341209 1.0770763,0.08796 2.4955187,-0.682971 5.2275913,-2.841209 0.8392112,-0.662946 1.7414063,-1.366071 2.0048786,-1.5625 0.2634722,-0.196429 1.1559232,-0.877989 1.9832242,-1.51458 0.827301,-0.636591 2.98137,-2.293957 4.786818,-3.683036 1.805449,-1.389079 3.335163,-2.5255983 3.399365,-2.5255983 0.161621,0 1.037681,0.6516113 5.460858,4.0617713 2.111607,1.627997 4.222496,3.24405 4.690864,3.591229 0.468368,0.347177 0.910332,0.702502 0.982143,0.78961 0.07181,0.08711 0.331457,0.293037 0.576993,0.45762 0.409107,0.274225 0.921971,0.672493 1.741071,1.352038 1.343914,1.114942 2.454756,1.850789 3.125,2.070069 0.429142,0.140401 0.944169,0.09976 1.114009,-0.08792 l 0,0 z"
       id="path3015"
       inkscape:connector-curvature="0"
       transform="translate(0,1012.3622)" />
    <path
       style="fill:#999999;fill-opacity:1;stroke-width:11;stroke-linecap:round;stroke-linejoin:round;stroke-miterlimit:4;stroke-dasharray:none"
       d="m 37.034787,21.899932 c -0.565732,-0.154862 -1.375976,-0.571174 -1.909258,-0.981 -0.171875,-0.132086 -3.596111,-2.820091 -7.609414,-5.973346 L 20.219202,9.2123953 13.542901,14.42266 c -3.6719655,2.865645 -6.9991956,5.449634 -7.3938448,5.7422 -1.1954734,0.886237 -2.6610324,1.553812 -3.4111601,1.553812 -0.6361219,0 -0.1447706,-1.070425 1.0517779,-2.291333 0.5205245,-0.531121 16.128931,-13.2941296 16.372011,-13.387408 0.142186,-0.054562 15.162579,12.171527 16.268683,13.242153 0.957182,0.926481 1.382734,1.594914 1.399852,2.198809 0.01434,0.505989 -0.153935,0.594639 -0.795433,0.419039 l 0,0 z"
       id="path3017"
       inkscape:connector-curvature="0"
       transform="translate(0,1012.3622)" />
    <path
       style="fill:#999999;fill-opacity:1;stroke-width:11;stroke-linecap:round;stroke-linejoin:round;stroke-miterlimit:4;stroke-dasharray:none"
       d="m 25.661243,32.667221 0,-4.140735 -4.441964,-0.05858 c -2.443081,-0.03222 -4.632813,-0.08114 -4.866072,-0.108713 l -0.424107,-0.05013 -1.7e-4,1.727128 c -9.8e-5,0.949921 -0.02665,2.842084 -0.059,4.204808 l -0.05883,2.477678 -3.021356,0 -3.0213563,0 0.00188,-7.165178 0.00188,-7.165179 5.0337616,-3.913857 c 2.768569,-2.152622 5.118614,-3.97329 5.222322,-4.04593 0.227412,-0.159286 -0.268553,-0.535135 6.203172,4.700858 l 4.690205,3.794643 0.0038,6.941965 0.0038,6.941964 -2.633928,0 -2.633929,0 0,-4.140737 3e-6,0 z"
       id="path3020"
       inkscape:connector-curvature="0"
       transform="translate(0,1012.3622)" />
    <path
       style="fill:#999999;fill-opacity:1;stroke-width:11;stroke-linecap:round;stroke-linejoin:round;stroke-miterlimit:4;stroke-dasharray:none"
       d="m 8.165859,30.044565 0.00462,-8.370536 1.4462767,-1.110911 c 0.7954521,-0.611002 3.4552051,-2.662586 5.9105621,-4.559076 2.455357,-1.896489 4.514493,-3.478181 4.575857,-3.51487 0.06812,-0.04073 0.328903,0.09895 0.669642,0.358667 0.541028,0.412382 10.587374,8.451948 11.238843,8.99386 l 0.323628,0.269203 0.05929,7.817277 c 0.03261,4.299504 0.08136,7.967949 0.108328,8.1521 l 0.04904,0.334822 -4.248919,0 -4.24892,0 0,-4.14468 0,-4.144678 -0.558036,-0.04925 c -0.306919,-0.02708 -1.683035,-0.07337 -3.058035,-0.102861 -1.375,-0.02949 -2.590311,-0.07513 -2.70069,-0.101419 -0.164051,-0.03907 -0.201553,-0.0094 -0.205418,0.162719 -0.0026,0.115787 -0.03845,2.018558 -0.07966,4.228379 -0.04121,2.209821 -0.07935,4.047991 -0.08476,4.084821 -0.0054,0.03683 -2.079027,0.06697 -4.608045,0.06697 l -4.5982141,0 0.00462,-8.370536 z m 22.851579,-0.223214 -9.46e-4,-7.075893 -4.383458,-3.522489 c -4.779017,-3.840355 -6.278376,-5.004297 -6.446402,-5.004297 -0.162653,0 -1.528092,1.023885 -6.249892,4.68653 l -4.25764,3.302601 0,7.300078 0,7.300077 3.112864,0 3.112864,0 0.05678,-0.414247 c 0.03123,-0.227837 0.05678,-2.096141 0.05678,-4.151786 0,-3.623639 0.0052,-3.737539 0.171103,-3.737539 1.097941,0 8.406041,0.190046 8.824432,0.229478 l 0.558036,0.05259 0,4.055393 0,4.055394 2.723214,0 2.723215,0 -9.47e-4,-7.075893 -1e-6,0 z"
       id="path3022"
       inkscape:connector-curvature="0"
       transform="translate(0,1012.3622)" />
  </g>
</svg>
