<?xml version="1.0" encoding="UTF-8" standalone="no"?>
<!-- Created with Inkscape (http://www.inkscape.org/) -->

<svg
   xmlns:dc="http://purl.org/dc/elements/1.1/"
   xmlns:cc="http://creativecommons.org/ns#"
   xmlns:rdf="http://www.w3.org/1999/02/22-rdf-syntax-ns#"
   xmlns:svg="http://www.w3.org/2000/svg"
   xmlns="http://www.w3.org/2000/svg"
   xmlns:sodipodi="http://sodipodi.sourceforge.net/DTD/sodipodi-0.dtd"
   xmlns:inkscape="http://www.inkscape.org/namespaces/inkscape"
   width="16px"
   height="16px"
   id="svg2985"
   version="1.1"
   inkscape:version="0.48.4 r9939"
   sodipodi:docname="New document 2">
  <defs
     id="defs2987" />
  <sodipodi:namedview
     id="base"
     pagecolor="#ffffff"
     bordercolor="#666666"
     borderopacity="1.0"
     inkscape:pageopacity="0.0"
     inkscape:pageshadow="2"
     inkscape:zoom="22.197802"
     inkscape:cx="8"
     inkscape:cy="8"
     inkscape:current-layer="layer1"
     showgrid="true"
     inkscape:grid-bbox="true"
     inkscape:document-units="px"
     inkscape:window-width="1030"
     inkscape:window-height="824"
     inkscape:window-x="100"
     inkscape:window-y="100"
     inkscape:window-maximized="0" />
  <metadata
     id="metadata2990">
    <rdf:RDF>
      <cc:Work
         rdf:about="">
        <dc:format>image/svg+xml</dc:format>
        <dc:type
           rdf:resource="http://purl.org/dc/dcmitype/StillImage" />
        <dc:title></dc:title>
      </cc:Work>
    </rdf:RDF>
  </metadata>
  <g
     id="layer1"
     inkscape:label="Layer 1"
     inkscape:groupmode="layer">
    <path
       style="fill:#333333;stroke:#000000;stroke-width:1px;stroke-linecap:butt;stroke-linejoin:miter;stroke-opacity:1"
       d="M 9.8207924,6.3143563 12.794059,6.2693063 14.370792,3.4311875 11.848019,1.4490093 C 6.3522806,3.8628571 3.5469945,7.5511294 2.6128713,12.125742 L 5.0004951,14.693564 7.7485149,12.666337 6.7123763,10.233663 C 7.6148439,7.9162048 8.7996919,6.6150549 9.8207924,6.3143563 z"
       id="path2993"
       inkscape:connector-curvature="0"
       sodipodi:nodetypes="ccccccccc" />
    <path
       style="fill:#333333;fill-opacity:1;stroke-width:11;stroke-linecap:round;stroke-linejoin:round;stroke-miterlimit:4;stroke-dasharray:none"
       d="M 3.810396,14.116257 C 3.2033539,13.460445 2.5681754,12.772819 2.3988881,12.5882 L 2.0910931,12.25253 2.2286847,11.673757 C 2.8681545,8.9838573 4.0145189,6.8350166 5.8024654,4.9747654 7.2842566,3.4330507 9.0489831,2.219349 11.363925,1.1498375 l 0.54833,-0.25333082 1.523947,1.19975872 c 0.838171,0.6598673 1.517931,1.2210292 1.510578,1.2470264 -0.0074,0.025997 -0.432467,0.8015861 -0.944697,1.7235307 l -0.931328,1.676263 -1.591973,0.025301 C 9.8888559,6.7936553 9.8865089,6.7938351 9.652656,6.9082487 8.8803083,7.2861235 7.9565155,8.5057415 7.3491455,9.9494097 l -0.1207791,0.2870823 0.5467559,1.284776 c 0.4510668,1.059923 0.5363293,1.294874 0.487178,1.342482 -0.093367,0.09044 -3.3004256,2.450836 -3.3256667,2.447695 C 4.924245,15.309903 4.4174381,14.772069 3.810396,14.116257 z M 6.0504413,13.33011 c 0.539547,-0.398499 1.0087601,-0.751345 1.0426964,-0.784103 0.051961,-0.05016 -0.014252,-0.237383 -0.4194249,-1.185974 L 6.1925865,10.233617 6.3810149,9.7902989 C 6.959815,8.4285469 7.5942787,7.4282155 8.3212678,6.7311847 8.7130499,6.355548 8.977531,6.1686619 9.3880901,5.9773533 l 0.3012664,-0.140381 1.4123515,-0.024452 1.412351,-0.024451 0.60269,-1.0811881 C 13.448229,4.1122277 13.719856,3.603478 13.720364,3.5763263 13.721418,3.5199134 11.892102,2.0674353 11.786123,2.0405387 11.638915,2.0031787 9.8329752,2.9766448 8.9512748,3.5686233 7.2056511,4.7406445 5.6796508,6.3102111 4.7348778,7.905396 4.0740264,9.0211989 3.4695654,10.512265 3.2043614,11.680826 l -0.069587,0.306618 0.9572413,1.032669 c 0.5264828,0.567968 0.9617841,1.03309 0.9673362,1.033605 0.00555,5.13e-4 0.4515422,-0.325109 0.9910891,-0.723608 l 0,0 z"
       id="path2995"
       inkscape:connector-curvature="0" />
  </g>
</svg>
