<?xml version="1.0" encoding="UTF-8" standalone="no"?>
<!-- Created with Inkscape (http://www.inkscape.org/) -->

<svg
   xmlns:dc="http://purl.org/dc/elements/1.1/"
   xmlns:cc="http://creativecommons.org/ns#"
   xmlns:rdf="http://www.w3.org/1999/02/22-rdf-syntax-ns#"
   xmlns:svg="http://www.w3.org/2000/svg"
   xmlns="http://www.w3.org/2000/svg"
   xmlns:sodipodi="http://sodipodi.sourceforge.net/DTD/sodipodi-0.dtd"
   xmlns:inkscape="http://www.inkscape.org/namespaces/inkscape"
   width="297mm"
   height="210mm"
   id="svg2991"
   version="1.1"
   inkscape:version="0.48.4 r9939"
   sodipodi:docname="3.svg">
  <defs
     id="defs2993" />
  <sodipodi:namedview
     inkscape:document-units="mm"
     pagecolor="#ffffff"
     bordercolor="#666666"
     borderopacity="1.0"
     inkscape:pageopacity="0.0"
     inkscape:pageshadow="2"
     inkscape:zoom="0.86831672"
     inkscape:cx="227.94552"
     inkscape:cy="397.73343"
     inkscape:current-layer="layer1"
     id="namedview2995"
     showgrid="false"
     inkscape:window-width="1920"
     inkscape:window-height="1018"
     inkscape:window-x="-8"
     inkscape:window-y="-8"
     inkscape:window-maximized="1"
     units="mm" />
  <metadata
     id="metadata2997">
    <rdf:RDF>
      <cc:Work
         rdf:about="">
        <dc:format>image/svg+xml</dc:format>
        <dc:type
           rdf:resource="http://purl.org/dc/dcmitype/StillImage" />
        <dc:title></dc:title>
      </cc:Work>
    </rdf:RDF>
  </metadata>
  <g
     inkscape:label="Layer 1"
     inkscape:groupmode="layer"
     id="layer1">
    <path
       style="fill:#b22222;fill-opacity:1;stroke-width:7.08661413;stroke-linecap:round;stroke-linejoin:round;stroke-miterlimit:4;stroke-dasharray:none"
       d="m 584.5439,183.24461 c -1.82369,-0.76152 -10.09087,-3.30228 -14.54957,-4.47152 -12.47105,-3.27041 -24.40382,-5.24175 -37.85252,-6.25339 -6.81374,-0.51254 -21.10615,-0.51239 -27.91624,2.3e-4 -16.19134,1.21905 -32.29382,4.21176 -45.76066,8.50491 -1.74712,0.55697 -3.22258,0.96918 -3.27881,0.91602 -0.18653,-0.17636 0.42153,-5.12233 0.88121,-7.16789 2.29672,-10.22003 9.5299,-19.73304 20.36031,-26.77772 17.39484,-11.31453 41.76573,-15.07053 64.10437,-9.87967 23.38185,5.4333 40.39772,19.70296 44.24552,37.10472 0.42721,1.93206 0.95914,8.40395 0.68866,8.37882 -0.0518,-0.004 -0.46686,-0.16434 -0.92227,-0.35451 l 0,0 z"
       id="path3979"
       inkscape:connector-curvature="0" />
    <path
       sodipodi:type="arc"
       style="fill:#000000;fill-opacity:1;stroke-width:7.08661413;stroke-linecap:round;stroke-linejoin:round;stroke-miterlimit:4;stroke-dasharray:none"
       id="path3945"
       sodipodi:cx="535.02271"
       sodipodi:cy="135.78101"
       sodipodi:rx="56.189598"
       sodipodi:ry="42.345783"
       d="m 591.2123,135.78101 a 56.189598,42.345783 0 1 1 -112.37919,0 56.189598,42.345783 0 1 1 112.37919,0 z"
       transform="matrix(1.1620586,0,0,1.0986472,-100.41611,23.204594)" />
    <path
       sodipodi:type="arc"
       style="fill:#b22222;fill-opacity:1;stroke-width:7.08661413;stroke-linecap:round;stroke-linejoin:round;stroke-miterlimit:4;stroke-dasharray:none"
       id="path3945-7"
       sodipodi:cx="535.02271"
       sodipodi:cy="135.78101"
       sodipodi:rx="56.189598"
       sodipodi:ry="42.345783"
       d="m 591.2123,135.78101 a 56.189598,42.345783 0 1 1 -112.37919,0 56.189598,42.345783 0 1 1 112.37919,0 z"
       transform="matrix(1.1620586,0,0,1.1197751,-101.36243,29.282577)" />
    <path
       style="fill:#b22222;fill-opacity:1;stroke-width:7.08661413;stroke-linecap:round;stroke-linejoin:round;stroke-miterlimit:4;stroke-dasharray:none"
       d="m 416.39722,209.00568 c -16.16448,-26.10934 -28.08552,-52.93433 -34.51041,-77.65616 -6.64351,-25.56303 -6.85045,-55.895752 -0.54982,-80.595496 2.076,-8.13841 6.62357,-21.45392 7.67446,-22.471264 1.89978,-1.839108 25.79975,14.618498 41.80151,28.784659 20.15594,17.843815 32.33125,33.032121 44.29852,55.260971 6.42523,11.93466 14.24554,31.22685 14.24554,35.14278 0,0.87205 -1.19996,3.98079 -2.66658,6.90833 -2.41586,4.82236 -3.2975,8.69331 -5.05823,22.20918 -0.56391,4.32884 -0.63912,4.40519 -5.89285,5.98424 -14.26157,4.28642 -43.41039,19.60122 -54.62202,28.69845 -2.20756,1.79122 -2.20881,1.79062 -4.72012,-2.26569 l 0,0 z"
       id="path4003"
       inkscape:connector-curvature="0" />
    <path
       style="fill:#b22222;fill-opacity:1;stroke-width:7.08661413;stroke-linecap:round;stroke-linejoin:round;stroke-miterlimit:4;stroke-dasharray:none"
       d="m 614.50188,222.16346 c -9.74584,-7.36713 -27.58769,-17.39496 -39.92401,-22.43889 l -5.47067,-2.23675 -0.022,-11.32476 c -0.0206,-10.66045 -0.21034,-11.72218 -3.2342,-18.10034 -1.76679,-3.72659 -4.85593,-8.77961 -6.86481,-11.22896 -4.28427,-5.22356 -4.26683,-5.52404 1.16659,-20.10934 15.12396,-40.59821 43.54738,-75.718542 83.41462,-103.068098 l 8.59332,-5.895159 3.24423,10.556197 c 6.81876,22.187213 9.63163,42.87295 8.66691,63.73649 -1.15351,24.94759 -6.33016,47.54475 -17.35952,75.77768 -4.29278,10.98866 -20.84896,45.03366 -23.38424,48.08565 -1.48489,1.78755 -1.51012,1.77681 -8.82632,-3.75372 z"
       id="path4005"
       inkscape:connector-curvature="0" />
    <path
       style="fill:#ff8c00;fill-opacity:1;stroke-width:9;stroke-linecap:round;stroke-linejoin:miter;stroke-miterlimit:4;stroke-dasharray:none"
       d="m 494.6093,668.59875 c -17.5864,-2.42103 -40.49959,-11.23167 -60.82025,-23.38672 -13.49098,-8.06976 -39.32433,-26.62796 -38.18474,-27.43116 0.28328,-0.19964 4.33627,-2.5732 9.0067,-5.27461 18.80995,-10.87972 31.72362,-27.43715 37.84193,-48.51946 3.82212,-13.17024 4.65204,-21.14702 4.65204,-44.71351 l 0,-22.01804 3.42948,1.28289 c 6.40716,2.39677 27.96276,6.83303 40.15275,8.26367 29.97018,3.51736 66.06083,0.50445 92.73945,-7.74205 4.68967,-1.4496 5.9021,-1.5756 5.47041,-0.56841 -0.30504,0.71166 -1.3163,9.22038 -2.2472,18.90826 -1.40034,14.57276 -1.49066,19.64074 -0.52305,29.34972 2.53926,25.47923 10.92704,42.83088 27.19227,56.25227 4.23822,3.49719 15.13499,10.35313 18.47128,11.62157 1.72083,0.65425 -4.46084,5.57241 -20.67953,16.45274 -18.04003,12.10217 -28.83348,18.12555 -45.03931,25.13466 -20.82508,9.00693 -34.87473,12.40601 -53.5607,12.95808 -6.23159,0.18411 -14.28727,-0.0723 -17.90153,-0.5699 z"
       id="path4055"
       inkscape:connector-curvature="0" />
    <path
       sodipodi:type="arc"
       style="fill:#000000;fill-opacity:1;stroke-width:11;stroke-linecap:round;stroke-linejoin:round;stroke-miterlimit:4;stroke-dasharray:none"
       id="path3000"
       sodipodi:cx="541.27716"
       sodipodi:cy="292.6463"
       sodipodi:rx="160.07983"
       sodipodi:ry="155.47322"
       d="m 701.35699,292.6463 a 160.07983,155.47322 0 1 1 -320.15966,0 160.07983,155.47322 0 1 1 320.15966,0 z"
       transform="matrix(1.2052241,0,0,1.1097583,-135.34168,19.315273)" />
    <path
       style="fill:none;stroke:#000000;stroke-width:8.7811079;stroke-linecap:butt;stroke-linejoin:miter;stroke-miterlimit:4;stroke-opacity:1;stroke-dasharray:none"
       d="M 545.44522,199.64531 C 546.82284,139.30059 570.31682,73.882142 653.1942,26.029612 680.88161,90.78563 667.42479,151.41444 621.42784,223.8949"
       id="path3967-1"
       inkscape:connector-curvature="0"
       sodipodi:nodetypes="ccc" />
    <path
       style="fill:none;stroke:#000000;stroke-width:8.7811079;stroke-linecap:butt;stroke-linejoin:miter;stroke-miterlimit:4;stroke-opacity:1;stroke-dasharray:none"
       d="M 497.25587,196.96129 C 495.87825,136.61658 472.38426,71.198136 389.50687,23.345595 361.81947,88.10162 375.27628,148.73043 421.27323,221.21088"
       id="path3967"
       inkscape:connector-curvature="0"
       sodipodi:nodetypes="ccc" />
    <path
       style="fill:none;stroke:#000000;stroke-width:11.35953426;stroke-linecap:butt;stroke-linejoin:miter;stroke-miterlimit:4;stroke-opacity:1;stroke-dasharray:none"
       d="m 440.77716,476.0259 c 0.009,44.57051 17.05845,112.52668 -54.63542,138.75798 91.63686,76.72429 153.12306,77.29945 255.36114,-2.66843 C 567.264,588.32427 592.00647,511.45956 596.36929,474.24696"
       id="path4053"
       inkscape:connector-curvature="0"
       sodipodi:nodetypes="cccc" />
    <path
       sodipodi:type="arc"
       style="fill:#fddcc9;fill-opacity:1;stroke-width:11;stroke-linecap:round;stroke-linejoin:round;stroke-miterlimit:4;stroke-dasharray:none"
       id="path3002"
       sodipodi:cx="570.85376"
       sodipodi:cy="292.94901"
       sodipodi:rx="135.99512"
       sodipodi:ry="135.18077"
       d="m 706.84888,292.94901 a 135.99512,135.18077 0 1 1 -271.99024,0 135.99512,135.18077 0 1 1 271.99024,0 z"
       transform="matrix(1.3212583,0,0,1.1885628,-236.60415,-4.0307612)" />
    <path
       sodipodi:type="arc"
       style="fill:#000000;fill-opacity:1;stroke-width:11;stroke-linecap:round;stroke-linejoin:round;stroke-miterlimit:4;stroke-dasharray:none"
       id="path3772"
       sodipodi:cx="623.78595"
       sodipodi:cy="258.74664"
       sodipodi:rx="50.489204"
       sodipodi:ry="53.746574"
       d="m 674.27515,258.74664 a 50.489204,53.746574 0 1 1 -100.9784,0 50.489204,53.746574 0 1 1 100.9784,0 z"
       transform="matrix(1.6681163,0,0,1.8144324,-423.65836,-139.63557)" />
    <path
       sodipodi:type="arc"
       style="fill:#000000;fill-opacity:1;stroke-width:11;stroke-linecap:round;stroke-linejoin:round;stroke-miterlimit:4;stroke-dasharray:none"
       id="path3772-1"
       sodipodi:cx="623.78595"
       sodipodi:cy="258.74664"
       sodipodi:rx="50.489204"
       sodipodi:ry="53.746574"
       d="m 674.27515,258.74664 a 50.489204,53.746574 0 1 1 -100.9784,0 50.489204,53.746574 0 1 1 100.9784,0 z"
       transform="matrix(1.6493735,0,0,1.8144324,-614.47778,-138.74088)" />
    <path
       sodipodi:type="arc"
       style="fill:#f5f5f5;fill-opacity:1;stroke-width:11;stroke-linecap:round;stroke-linejoin:round;stroke-miterlimit:4;stroke-dasharray:none"
       id="path3772-7"
       sodipodi:cx="623.78595"
       sodipodi:cy="258.74664"
       sodipodi:rx="50.489204"
       sodipodi:ry="53.746574"
       d="m 674.27515,258.74664 a 50.489204,53.746574 0 1 1 -100.9784,0 50.489204,53.746574 0 1 1 100.9784,0 z"
       transform="matrix(1.5556591,0,0,1.7145554,-354.45531,-114.68739)" />
    <path
       sodipodi:type="arc"
       style="fill:#f5f5f5;fill-opacity:1;stroke-width:11;stroke-linecap:round;stroke-linejoin:round;stroke-miterlimit:4;stroke-dasharray:none"
       id="path3772-7-4"
       sodipodi:cx="623.78595"
       sodipodi:cy="258.74664"
       sodipodi:rx="50.489204"
       sodipodi:ry="53.746574"
       d="m 674.27515,258.74664 a 50.489204,53.746574 0 1 1 -100.9784,0 50.489204,53.746574 0 1 1 100.9784,0 z"
       transform="matrix(1.5556591,0,0,1.7145554,-555.0737,-112.89804)" />
    <path
       sodipodi:type="arc"
       style="fill:#f08080;fill-opacity:1;stroke-width:11;stroke-linecap:round;stroke-linejoin:round;stroke-miterlimit:4;stroke-dasharray:none"
       id="path3772-7-4-0"
       sodipodi:cx="623.78595"
       sodipodi:cy="258.74664"
       sodipodi:rx="50.489204"
       sodipodi:ry="58.146877"
       d="m 674.27515,258.74664 a 50.489204,58.146877 0 1 1 -100.9784,0 50.489204,58.146877 0 1 1 100.9784,0 z"
       transform="matrix(1.4244589,0,0,1.4232474,-466.60868,-39.759772)" />
    <path
       sodipodi:type="arc"
       style="fill:#f08080;fill-opacity:1;stroke-width:11;stroke-linecap:round;stroke-linejoin:round;stroke-miterlimit:4;stroke-dasharray:none"
       id="path3772-7-4-0-8"
       sodipodi:cx="623.78595"
       sodipodi:cy="258.74664"
       sodipodi:rx="50.489204"
       sodipodi:ry="58.146877"
       d="m 674.27515,258.74664 a 50.489204,58.146877 0 1 1 -100.9784,0 50.489204,58.146877 0 1 1 100.9784,0 z"
       transform="matrix(1.4244589,0,0,1.4232474,-265.99031,-42.891139)" />
    <path
       sodipodi:type="arc"
       style="fill:#000000;fill-opacity:1;stroke-width:11;stroke-linecap:round;stroke-linejoin:round;stroke-miterlimit:4;stroke-dasharray:none"
       id="path3772-7-4-0-82"
       sodipodi:cx="623.78595"
       sodipodi:cy="258.74664"
       sodipodi:rx="50.489204"
       sodipodi:ry="58.146877"
       d="m 674.27515,258.74664 a 50.489204,58.146877 0 1 1 -100.9784,0 50.489204,58.146877 0 1 1 100.9784,0 z"
       transform="matrix(1.1433157,0,0,1.0616656,-74.529794,42.167527)" />
    <path
       style="fill:#ff8c00;fill-opacity:1;stroke-width:4.30000019;stroke-linecap:round;stroke-linejoin:miter;stroke-miterlimit:4;stroke-dasharray:none"
       d="m 355.98407,268.52484 c 12.45099,-21.32586 32.70414,-41.90264 55.1541,-56.03535 29.37385,-18.49145 60.24528,-28.05249 96.00262,-29.73251 34.24815,-1.6091 68.3402,5.66218 98.45408,20.9987 22.90295,11.66408 43.60887,28.57116 58.90694,48.09947 4.0466,5.16557 10.09583,14.02728 9.77978,14.3267 -0.11833,0.11211 -4.06912,-0.52703 -8.77955,-1.4203 l -8.56442,-1.6241 -3.41674,-4.29914 c -4.43097,-5.57525 -14.47168,-15.06734 -20.46288,-19.34481 -2.59693,-1.8541 -10.24609,-6.85807 -16.99813,-11.11995 -6.75201,-4.26188 -14.28037,-9.15305 -16.72967,-10.86928 l -4.45326,-3.12042 -1.76444,1.96036 -1.76443,1.96036 11.22307,10.51257 c 6.17268,5.78191 12.65225,12.22363 14.39904,14.31493 4.93807,5.91196 11.08691,14.95209 10.52932,15.48037 -0.109,0.10327 -1.81612,-0.10558 -3.79362,-0.46399 -1.9775,-0.35847 -7.69396,-1.25981 -12.70327,-2.003 -22.69965,-3.36776 -37.35467,-4.62154 -51.78313,-4.4302 l -10.09557,0.13388 -13.98508,-24.24646 c -7.6918,-13.33556 -14.09408,-24.25482 -14.2273,-24.26504 -0.1332,-0.01 -7.88008,11.20399 -17.21525,24.92047 l -16.97307,24.93906 -11.82318,0.0183 c -6.50275,0.01 -14.90409,0.27029 -18.66964,0.57817 -5.64927,0.4619 -32.58808,3.3862 -40.0164,4.34391 -1.36601,0.17612 -2.00672,0.0928 -2.00672,-0.26097 0,-1.08136 5.6978,-11.74597 8.28811,-15.5129 5.0552,-7.3515 9.33104,-12.24847 18.48384,-21.16887 l 5.29651,-5.16202 -1.77777,-1.95558 -1.77776,-1.95557 -3.75068,2.38628 c -17.10381,10.8819 -33.85519,26.87251 -46.9271,44.79591 l -2.49626,3.4227 -17.57719,4.7412 c -9.66745,2.60765 -17.70288,4.74119 -17.85653,4.74119 -0.15364,0 0.6886,-1.65786 1.87163,-3.68415 z"
       id="path4051"
       inkscape:connector-curvature="0" />
    <path
       style="fill:none;stroke:#000000;stroke-width:4.85860538;stroke-linecap:round;stroke-linejoin:miter;stroke-miterlimit:4;stroke-opacity:1;stroke-dasharray:none"
       d="m 352.39473,275.26758 38.32568,-10.28876 c 12.92481,-18.80203 32.49825,-38.90446 52.99355,-50.54911 -19.88104,18.0346 -27.67147,29.15924 -34.54044,46.97041 20.24042,-1.57405 49.19103,-7.403 78.54401,-5.36804 l 32.64779,-47.86509 26.96992,46.52308 c 27.22668,-2.58 64.07138,4.11695 85.64135,7.60474 -10.79291,-21.17111 -24.43418,-31.54381 -39.74516,-45.62842 26.22305,19.10861 42.3454,22.30633 61.98352,48.75977 l 27.91624,5.36804"
       id="path4013"
       inkscape:connector-curvature="0"
       sodipodi:nodetypes="ccccccccccc" />
    <path
       sodipodi:type="arc"
       style="fill:#000000;fill-opacity:1;stroke-width:11;stroke-linecap:round;stroke-linejoin:round;stroke-miterlimit:4;stroke-dasharray:none"
       id="path3772-7-4-0-82-4"
       sodipodi:cx="623.78595"
       sodipodi:cy="258.74664"
       sodipodi:rx="50.489204"
       sodipodi:ry="58.146877"
       d="m 674.27515,258.74664 a 50.489204,58.146877 0 1 1 -100.9784,0 50.489204,58.146877 0 1 1 100.9784,0 z"
       transform="matrix(1.1433157,0,0,1.0616656,-277.04079,48.877588)" />
    <path
       sodipodi:type="arc"
       style="fill:#f5f5f5;fill-opacity:1;stroke-width:11;stroke-linecap:round;stroke-linejoin:round;stroke-miterlimit:4;stroke-dasharray:none"
       id="path3772-7-4-0-82-5"
       sodipodi:cx="623.78595"
       sodipodi:cy="258.74664"
       sodipodi:rx="50.489204"
       sodipodi:ry="58.146877"
       d="m 674.27515,258.74664 a 50.489204,58.146877 0 1 1 -100.9784,0 50.489204,58.146877 0 1 1 100.9784,0 z"
       transform="matrix(0.52480058,0,0,0.41543436,129.59912,198.19428)" />
    <path
       sodipodi:type="arc"
       style="fill:#f5f5f5;fill-opacity:1;stroke-width:11;stroke-linecap:round;stroke-linejoin:round;stroke-miterlimit:4;stroke-dasharray:none"
       id="path3772-7-4-0-82-5-5"
       sodipodi:cx="623.78595"
       sodipodi:cy="258.74664"
       sodipodi:rx="50.489204"
       sodipodi:ry="58.146877"
       d="m 674.27515,258.74664 a 50.489204,58.146877 0 1 1 -100.9784,0 50.489204,58.146877 0 1 1 100.9784,0 z"
       transform="matrix(0.52480058,0,0,0.41543436,330.2175,194.61557)" />
    <path
       sodipodi:type="arc"
       style="fill:#000000;fill-opacity:1;stroke-width:7.08661413;stroke-linecap:round;stroke-linejoin:round;stroke-miterlimit:4;stroke-dasharray:none"
       id="path3939"
       sodipodi:cx="535.42987"
       sodipodi:cy="385.784"
       sodipodi:rx="24.023088"
       sodipodi:ry="21.987234"
       d="m 559.45296,385.784 a 24.023088,21.987234 0 1 1 -48.04618,0 24.023088,21.987234 0 1 1 48.04618,0 z"
       transform="matrix(1.1620586,0,0,1.0986472,-103.25505,29.467316)" />
    <path
       sodipodi:type="arc"
       style="fill:#fddcc9;fill-opacity:1;stroke-width:7.08661413;stroke-linecap:round;stroke-linejoin:round;stroke-miterlimit:4;stroke-dasharray:none"
       id="path3943"
       sodipodi:cx="525.25061"
       sodipodi:cy="353.21033"
       sodipodi:rx="19.544209"
       sodipodi:ry="24.43026"
       d="m 544.79482,353.21033 a 19.544209,24.43026 0 1 1 -39.08842,0 19.544209,24.43026 0 1 1 39.08842,0 z"
       transform="matrix(1.525202,0,0,1.0986472,-282.16739,55.412878)" />
    <path
       style="fill:#b22222;fill-opacity:1;stroke-width:7.08661413;stroke-linecap:round;stroke-linejoin:round;stroke-miterlimit:4;stroke-dasharray:none"
       d=""
       id="path3977"
       inkscape:connector-curvature="0" />
    <path
       style="fill:#b22222;fill-opacity:1;stroke-width:7.08661413;stroke-linecap:round;stroke-linejoin:round;stroke-miterlimit:4;stroke-dasharray:none"
       d=""
       id="path3983"
       inkscape:connector-curvature="0" />
    <path
       sodipodi:type="arc"
       style="fill:#000000;fill-opacity:1;stroke-width:8;stroke-linecap:round;stroke-linejoin:miter;stroke-miterlimit:4;stroke-dasharray:none"
       id="path4097"
       sodipodi:cx="543.98047"
       sodipodi:cy="671.21088"
       sodipodi:rx="26.873287"
       sodipodi:ry="32.166508"
       d="m 570.85376,671.21088 a 26.873287,32.166508 0 1 1 -53.74658,0 26.873287,32.166508 0 1 1 53.74658,0 z"
       transform="matrix(1.1620586,0,0,1.0986472,-94.518466,-63.307484)" />
    <path
       sodipodi:type="arc"
       style="fill:#000000;fill-opacity:1;stroke-width:8;stroke-linecap:round;stroke-linejoin:miter;stroke-miterlimit:4;stroke-dasharray:none"
       id="path4097-5"
       sodipodi:cx="543.98047"
       sodipodi:cy="671.21088"
       sodipodi:rx="26.873287"
       sodipodi:ry="32.166508"
       d="m 570.85376,671.21088 a 26.873287,32.166508 0 1 1 -53.74658,0 26.873287,32.166508 0 1 1 53.74658,0 z"
       transform="matrix(1.2118587,0,0,1.0986472,-178.21527,-64.02618)" />
    <path
       sodipodi:type="arc"
       style="fill:#ffffff;fill-opacity:1;stroke-width:8;stroke-linecap:round;stroke-linejoin:miter;stroke-miterlimit:4;stroke-dasharray:none"
       id="path4097-5-2"
       sodipodi:cx="543.98047"
       sodipodi:cy="671.21088"
       sodipodi:rx="26.873287"
       sodipodi:ry="32.166508"
       d="m 570.85376,671.21088 a 26.873287,32.166508 0 1 1 -53.74658,0 26.873287,32.166508 0 1 1 53.74658,0 z"
       transform="matrix(0.82752661,0,0,0.76488094,31.36123,145.17971)" />
    <path
       style="fill:none;stroke:#000000;stroke-width:3.38972449;stroke-linecap:butt;stroke-linejoin:miter;stroke-miterlimit:4;stroke-opacity:1;stroke-dasharray:none"
       d="m 454.1234,618.82262 c -0.86958,8.65489 -13.34693,19.84111 -22.71151,23.26153"
       id="path4057"
       inkscape:connector-curvature="0"
       sodipodi:nodetypes="cc" />
    <path
       style="fill:none;stroke:#000000;stroke-width:3.38972449;stroke-linecap:butt;stroke-linejoin:miter;stroke-miterlimit:4;stroke-opacity:1;stroke-dasharray:none"
       d="m 573.35887,617.92793 c 6.93962,19.72775 20.50344,22.09077 27.44307,26.84024"
       id="path4059"
       inkscape:connector-curvature="0"
       sodipodi:nodetypes="cc" />
    <path
       sodipodi:type="arc"
       style="fill:#ffffff;fill-opacity:1;stroke-width:8;stroke-linecap:round;stroke-linejoin:miter;stroke-miterlimit:4;stroke-dasharray:none"
       id="path4097-5-2-7"
       sodipodi:cx="543.98047"
       sodipodi:cy="671.21088"
       sodipodi:rx="26.873287"
       sodipodi:ry="32.166508"
       d="m 570.85376,671.21088 a 26.873287,32.166508 0 1 1 -53.74658,0 26.873287,32.166508 0 1 1 53.74658,0 z"
       transform="matrix(0.82752661,0,0,0.76488094,88.7413,147.83718)" />
    <path
       style="fill:#f5f5f5;fill-opacity:1;stroke-width:8;stroke-linecap:round;stroke-linejoin:miter;stroke-miterlimit:4;stroke-dasharray:none"
       d="m 511.42444,645.02829 c 0.002,-5.96622 0.33126,-16.63732 0.73058,-23.71352 l 0.72604,-12.86587 22.10753,0 22.10754,0 0.61219,3.27953 c 0.33669,1.80374 1.61863,10.77201 2.84874,19.92945 1.23012,9.15748 2.52887,18.35277 2.88612,20.43401 l 0.64955,3.78408 -26.3364,0 -26.33641,0 0.003,-10.84768 z"
       id="path4089"
       inkscape:connector-curvature="0" />
    <path
       style="fill:#f5f5f5;fill-opacity:1;stroke-width:8;stroke-linecap:round;stroke-linejoin:miter;stroke-miterlimit:4;stroke-dasharray:none"
       d="m 462.59282,654.20382 c -2.628,-0.20794 -4.77818,-0.84504 -4.77818,-1.41579 0,-1.2574 9.04483,-44.68045 9.34478,-44.86302 0.11632,-0.0707 9.95063,0.0891 21.85392,0.35519 l 21.64232,0.48396 0,9.59132 c 0,5.27522 -0.33139,15.66186 -0.73644,23.08143 l -0.73642,13.49011 -20.9059,-0.17255 c -11.49826,-0.0948 -23.0561,-0.34271 -25.68408,-0.55065 z"
       id="path4091"
       inkscape:connector-curvature="0" />
    <path
       style="fill:none;stroke:#000000;stroke-width:9.03926563;stroke-linecap:butt;stroke-linejoin:miter;stroke-miterlimit:4;stroke-opacity:1;stroke-dasharray:none"
       d="M 485.35174,503.4096 456.01603,657.29362 566.73467,658.1883 546.86209,507.88297"
       id="path4061"
       inkscape:connector-curvature="0" />
    <path
       style="fill:#fddcc9;fill-opacity:1;stroke-width:8;stroke-linecap:round;stroke-linejoin:miter;stroke-miterlimit:4;stroke-dasharray:none"
       d="m 561.10034,583.5605 c -1.64978,-6.51204 -9.24539,-55.07453 -8.6891,-55.55346 1.76554,-1.51992 15.37241,10.40268 20.062,17.57869 6.01008,9.19666 6.41216,17.88418 1.22627,26.49567 -3.18001,5.28059 -12.10864,13.41546 -12.59917,11.4791 z"
       id="path4157"
       inkscape:connector-curvature="0" />
    <path
       style="fill:none;stroke:#000000;stroke-width:9.03926563;stroke-linecap:butt;stroke-linejoin:miter;stroke-miterlimit:4;stroke-opacity:1;stroke-dasharray:none"
       d="m 549.22787,523.98711 c 34.70438,15.82247 35.76081,49.26415 9.9363,64.41657"
       id="path4063"
       inkscape:connector-curvature="0"
       sodipodi:nodetypes="cc" />
    <path
       style="fill:#fddcc9;fill-opacity:1;stroke-width:8;stroke-linecap:round;stroke-linejoin:miter;stroke-miterlimit:4;stroke-dasharray:none"
       d="m 463.12697,578.60403 c -4.63724,-4.02339 -9.08196,-13.63512 -9.08196,-19.63983 0,-3.32938 2.45851,-9.6059 5.46335,-13.94783 5.58311,-8.06747 17.55824,-17.70626 19.90164,-16.01886 1.64897,1.18735 -10.50244,51.70024 -12.43702,51.70024 -0.78807,0 -2.51876,-0.94218 -3.84601,-2.09372 z"
       id="path4155"
       inkscape:connector-curvature="0" />
    <path
       style="fill:none;stroke:#000000;stroke-width:9.03926563;stroke-linecap:butt;stroke-linejoin:miter;stroke-miterlimit:4;stroke-opacity:1;stroke-dasharray:none"
       d="M 480.04677,524.18552 C 445.34238,540.008 443.81281,572.555 469.63732,587.70742"
       id="path4063-1"
       inkscape:connector-curvature="0"
       sodipodi:nodetypes="cc" />
    <path
       style="fill:#000000;stroke:#000000;stroke-width:1.1299082px;stroke-linecap:butt;stroke-linejoin:miter;stroke-opacity:1"
       d="m 548.75473,537.40722 c -42.55723,6.60594 -54.05787,2.53482 -70.02718,0 l -8.51682,39.36569 c 37.84328,7.44833 62.23077,4.2954 85.16818,0 z"
       id="path4083"
       inkscape:connector-curvature="0"
       sodipodi:nodetypes="ccccc" />
    <path
       style="fill:none;stroke:#000000;stroke-width:9.03926563;stroke-linecap:butt;stroke-linejoin:miter;stroke-miterlimit:4;stroke-opacity:1;stroke-dasharray:none"
       d="m 466.20572,605.61026 94.96588,0.68691"
       id="path4085"
       inkscape:connector-curvature="0"
       sodipodi:nodetypes="cc" />
    <path
       style="fill:none;stroke:#000000;stroke-width:9.03926563;stroke-linecap:butt;stroke-linejoin:miter;stroke-miterlimit:4;stroke-opacity:1;stroke-dasharray:none"
       d="m 512.18308,606.29717 -0.94631,50.10177"
       id="path4087"
       inkscape:connector-curvature="0" />
    <path
       style="fill:#f08080;fill-opacity:1;stroke-width:8;stroke-linecap:round;stroke-linejoin:miter;stroke-miterlimit:4;stroke-dasharray:none"
       d="m 472.25438,599.12498 c 0.27377,-1.10715 1.25038,-6.16466 2.17022,-11.23888 1.54388,-8.51661 1.82269,-9.19158 3.62664,-8.77963 13.18707,3.01133 46.85582,3.63278 62.27148,1.14939 5.06901,-0.8166 9.58484,-1.48472 10.03518,-1.48472 0.45036,0 1.33756,4.32799 1.97155,9.61775 0.634,5.28977 1.36341,10.32231 1.62092,11.18343 0.44078,1.47399 -1.95245,1.56568 -40.86278,1.56568 l -41.33098,0 0.49777,-2.01302 z"
       id="path4093"
       inkscape:connector-curvature="0" />
    <path
       style="fill:#f08080;fill-opacity:1;stroke-width:8;stroke-linecap:round;stroke-linejoin:miter;stroke-miterlimit:4;stroke-dasharray:none"
       d="m 494.80579,538.95489 c -5.39209,-0.68056 -9.98895,-1.41241 -10.21523,-1.62636 -0.51743,-0.4892 3.56872,-22.58956 4.41634,-23.8862 0.44237,-0.67671 3.78218,-0.65182 11.42599,0.0851 8.97835,0.86564 29.95602,0.69446 40.10837,-0.32729 1.70053,-0.17113 2.00072,0.83453 3.41561,11.44314 0.85316,6.39693 1.43184,11.76668 1.28594,11.9328 -0.14588,0.16613 -4.45087,0.83978 -9.56663,1.49704 -14.99907,1.927 -30.02085,2.25108 -40.87039,0.88172 l 0,0 z"
       id="path4095"
       inkscape:connector-curvature="0" />
  </g>
</svg>
