<?xml version="1.0" encoding="UTF-8" standalone="no"?>
<!-- Created with Inkscape (http://www.inkscape.org/) -->

<svg
   xmlns:dc="http://purl.org/dc/elements/1.1/"
   xmlns:cc="http://creativecommons.org/ns#"
   xmlns:rdf="http://www.w3.org/1999/02/22-rdf-syntax-ns#"
   xmlns:svg="http://www.w3.org/2000/svg"
   xmlns="http://www.w3.org/2000/svg"
   xmlns:sodipodi="http://sodipodi.sourceforge.net/DTD/sodipodi-0.dtd"
   xmlns:inkscape="http://www.inkscape.org/namespaces/inkscape"
   width="744.09448819"
   height="1052.3622047"
   id="svg4189"
   version="1.1"
   inkscape:version="0.48.4 r9939"
   sodipodi:docname="New document 5">
  <defs
     id="defs4191" />
  <sodipodi:namedview
     id="base"
     pagecolor="#ffffff"
     bordercolor="#666666"
     borderopacity="1.0"
     inkscape:pageopacity="0.0"
     inkscape:pageshadow="2"
     inkscape:zoom="0.24748737"
     inkscape:cx="-58.817202"
     inkscape:cy="-90.074097"
     inkscape:document-units="px"
     inkscape:current-layer="layer1"
     showgrid="false"
     inkscape:window-width="944"
     inkscape:window-height="1002"
     inkscape:window-x="0"
     inkscape:window-y="0"
     inkscape:window-maximized="0" />
  <metadata
     id="metadata4194">
    <rdf:RDF>
      <cc:Work
         rdf:about="">
        <dc:format>image/svg+xml</dc:format>
        <dc:type
           rdf:resource="http://purl.org/dc/dcmitype/StillImage" />
        <dc:title></dc:title>
      </cc:Work>
    </rdf:RDF>
  </metadata>
  <g
     inkscape:label="Layer 1"
     inkscape:groupmode="layer"
     id="layer1">
    <path
       style="fill:none;stroke:#000000;stroke-width:10.07774353;stroke-linecap:round;stroke-linejoin:miter;stroke-miterlimit:10;stroke-opacity:1;stroke-dasharray:none"
       d="m 306.11031,41.750836 91.88607,-6.1355 52.24895,40.90331 61.25739,16.36133 41.43882,124.755084 -88.28271,71.58078 -36.03375,-20.45165 0,-112.4841 25.22363,-79.761444"
       id="path4197"
       inkscape:connector-curvature="0" />
    <path
       style="fill:none;stroke:#000000;stroke-width:10.07774353;stroke-linecap:butt;stroke-linejoin:miter;stroke-miterlimit:4;stroke-opacity:1;stroke-dasharray:none"
       d="m 513.3044,252.40287 -7.20675,87.9421 28.82701,22.49682 21.62025,167.70356 47.77155,46.64803 4.3496,152.15422 10.93792,42.52729 -5.40506,30.67745 -53.2405,13.69959"
       id="path4707"
       inkscape:connector-curvature="0"
       sodipodi:nodetypes="ccccccccc" />
    <path
       style="fill:none;stroke:#000000;stroke-width:9.59269142;stroke-linecap:butt;stroke-linejoin:miter;stroke-miterlimit:4;stroke-opacity:1;stroke-dasharray:none"
       d="m 554.82801,615.01568 -12.77249,51.93283 21.59612,179.18646 65.12344,20.18578 -10.41975,57.67366 -70.33331,0 -31.25926,-31.72052 -26.04937,-83.6268 -2.60494,-95.16155 -70.33331,-5.76736 -41.67899,49.02261 -79.85021,21.91253"
       id="path4709"
       inkscape:connector-curvature="0"
       sodipodi:nodetypes="cccccccccccc" />
    <path
       style="fill:none;stroke:#000000;stroke-width:10;stroke-linecap:butt;stroke-linejoin:miter;stroke-miterlimit:4;stroke-opacity:1;stroke-dasharray:none"
       d="m 308.57143,575.21933 -14.28572,94.28571 2.85714,94.28571 -14.28571,80 25.71429,51.42858 -25.71429,42.85714 -65.71429,0 -14.28571,-37.14286 0,-28.57143 8.57143,-17.14285 L 222.85714,666.6479 240,523.79075"
       id="path4711"
       inkscape:connector-curvature="0" />
    <path
       style="fill:none;stroke:#000000;stroke-width:10;stroke-linecap:butt;stroke-linejoin:miter;stroke-miterlimit:4;stroke-opacity:1;stroke-dasharray:none"
       d="M 213.79551,795.04601 160,815.21933 l -5.71429,-57.14286 62.85715,-40"
       id="path4713"
       inkscape:connector-curvature="0"
       sodipodi:nodetypes="cccc" />
    <path
       style="fill:none;stroke:#000000;stroke-width:8.35338593;stroke-linecap:round;stroke-linejoin:miter;stroke-miterlimit:4;stroke-opacity:1;stroke-dasharray:none"
       d="m 223.93949,657.88963 -42.97332,-71.38861 -3.11653,-62.59902 53.9602,-45.35858 2.65448,-107.4674 27.44624,-49.69308 16.0658,-98.70024 -96.11546,-37.77489 -13.21805,-54.29907 24.23309,-43.956382 81.51128,-12.928348 30.97434,-32.351015"
       id="path4715"
       inkscape:connector-curvature="0"
       sodipodi:nodetypes="cccccccccccc" />
    <path
       style="fill:#000000;fill-opacity:1;stroke:#000000;stroke-width:10;stroke-linecap:butt;stroke-linejoin:miter;stroke-miterlimit:4;stroke-opacity:1;stroke-dasharray:none"
       d="m 225.26402,79.585281 -16.32379,27.429989 -7.41618,7.41909 -6.56461,6.56718 -19.25049,1.62522 20.26065,-34.960261"
       id="path4717"
       inkscape:connector-curvature="0"
       sodipodi:nodetypes="cccccc" />
    <path
       style="fill:none;stroke:#000000;stroke-width:11;stroke-linecap:round;stroke-linejoin:miter;stroke-miterlimit:4;stroke-opacity:1;stroke-dasharray:none"
       d="m 171.72594,135.14367 58.58884,39.39595 28.28427,5.05076"
       id="path4719"
       inkscape:connector-curvature="0"
       sodipodi:nodetypes="ccc" />
    <path
       style="fill:#000000;fill-opacity:1;stroke:#000000;stroke-width:1.16163969px;stroke-linecap:butt;stroke-linejoin:miter;stroke-opacity:1"
       d="m 330.58123,75.954511 14.39489,-1.339173 23.64874,28.122632 -24.67694,-9.374211 -8.22565,6.695861 -15.42309,-9.374206 z"
       id="path4721"
       inkscape:connector-curvature="0" />
  </g>
</svg>
