<?xml version="1.0" encoding="UTF-8" standalone="no"?>
<!-- Created with Inkscape (http://www.inkscape.org/) -->

<svg
   xmlns:dc="http://purl.org/dc/elements/1.1/"
   xmlns:cc="http://creativecommons.org/ns#"
   xmlns:rdf="http://www.w3.org/1999/02/22-rdf-syntax-ns#"
   xmlns:svg="http://www.w3.org/2000/svg"
   xmlns="http://www.w3.org/2000/svg"
   version="1.1"
   width="744.09448"
   height="1052.3622"
   id="svg2">
  <defs
     id="defs4" />
  <metadata
     id="metadata7">
    <rdf:RDF>
      <cc:Work
         rdf:about="">
        <dc:format>image/svg+xml</dc:format>
        <dc:type
           rdf:resource="http://purl.org/dc/dcmitype/StillImage" />
        <dc:title></dc:title>
      </cc:Work>
    </rdf:RDF>
  </metadata>
  <g
     id="layer1">
    <path
       d="m 211.8815,450.67951 c -28.121,-35.78746 -27.68003,-82.35987 -26.95412,-135.48675 1.96536,-54.66091 6.25212,-104.38824 65.44351,-141.73118 76.08058,-59.01381 213.46624,-37.01386 266.17589,-3.99984 54.2278,33.37107 73.421,123.1972 64.51498,168.86194 -11.0016,81.99019 -11.86034,96.35213 -33.22041,122.01097"
       id="path2985"
       style="fill:none;stroke:#000000;stroke-width:10.51469803;stroke-linecap:round;stroke-linejoin:miter;stroke-miterlimit:4;stroke-opacity:1;stroke-dasharray:none;marker-start:none" />
    <path
       d="m 227.73832,439.93408 c 8.48851,-18.44446 -2.83853,-31.55924 36.18447,-58.67481 18.33368,-23.38667 -12.82359,-49.17873 -23.94523,-70.82538 -8.0602,-57.9674 17.68652,-54.29513 43.64151,-55.33338 l 202.33793,0 c 23.57661,3.03267 52.06676,-12.50773 42.03748,61.07039 -40.99658,23.71431 -46.09021,53.02756 -34.18801,64.09425 19.03364,13.46357 40.89799,30.60604 39.11099,60.66307"
       id="path3957"
       style="fill:none;stroke:#000000;stroke-width:10;stroke-linecap:round;stroke-linejoin:miter;stroke-miterlimit:4;stroke-opacity:1;stroke-dasharray:none" />
    <path
       d="m 238.21319,547.62903 c -18.77192,27.66102 -9.94349,-10.31262 -26.13794,-32.18368 -4.50111,-15.15609 0.0263,-18.39761 2.91247,-29.14121 -3.20112,-15.67731 -3.69837,-24.45137 5.7506,-26.52781 26.01008,10.06642 19.54818,41.95326 27.18314,64.36731 -0.84538,47.79336 15.49755,78.09052 22.329,105.24927 13.02902,13.90209 37.97134,25.66939 38.83304,41.75177 2.21227,14.03596 15.16692,29.23488 22.32901,32.18367 60.05361,-5.85533 57.60233,1.4497 89.316,0.86983 10.18112,-3.23433 11.72742,-21.75784 19.41651,-33.92331 3.64215,-11.72138 30.65435,-19.63997 45.46692,-32.34487 28.6814,-94.76863 29.67957,-65.16907 32.19916,-105.95789 l 3.8833,-46.10092 c 4.28272,-6.89071 6.26974,-15.8383 20.38735,-13.91726 9.39006,4.62939 9.90487,9.40399 9.22256,32.08243 -10.77365,21.9241 -7.81697,31.36076 -9.3038,42.88402 -7.11939,21.27505 -10.27424,13.85444 -17.39362,19.84487"
       id="path3959"
       style="fill:none;stroke:#000000;stroke-width:10.35043526;stroke-linecap:round;stroke-linejoin:miter;stroke-miterlimit:4;stroke-opacity:1;stroke-dasharray:none" />
    <path
       d="m 352.9948,406.55254 c -33.70879,-8.87137 -55.39086,0.4321 -82.86778,0.97836"
       id="path3961"
       style="fill:none;stroke:#000000;stroke-width:15.53213692;stroke-linecap:round;stroke-linejoin:miter;stroke-miterlimit:4;stroke-opacity:1;stroke-dasharray:none;marker-start:none" />
    <path
       d="m 402.44911,408.69186 c 34.9724,-11.00331 58.13116,-3.25682 83.48624,1.00382"
       id="path4143"
       style="fill:none;stroke:#000000;stroke-width:15.55040169;stroke-linecap:round;stroke-linejoin:miter;stroke-miterlimit:4;stroke-opacity:1;stroke-dasharray:none" />
    <path
       d="m 272.82609,448.01436 c 17.20854,-9.51488 31.83,-25.49747 54.34783,-21.73913 9.91741,5.7971 12.96708,11.5942 17.3913,17.3913"
       id="path4145"
       style="fill:none;stroke:#000000;stroke-width:8;stroke-linecap:butt;stroke-linejoin:miter;stroke-miterlimit:4;stroke-opacity:1;stroke-dasharray:none" />
    <path
       d="m 415.76087,444.75349 c 4.22985,-13.15726 13.89445,-20.87984 23.91305,-19.56522 26.16902,1.24423 24.9081,12.97797 40.21739,19.56522"
       id="path4147"
       style="fill:none;stroke:#000000;stroke-width:8;stroke-linecap:round;stroke-linejoin:round;stroke-miterlimit:4;stroke-opacity:1;stroke-dasharray:none" />
    <path
       d="m 304.8913,432.25348 c 0.55898,8.44983 6.58025,11.3091 13.12307,10.98213 10.6916,1.37297 11.43093,-4.785 14.32259,-11.25386"
       id="path4149"
       style="fill:none;stroke:#000000;stroke-width:8;stroke-linecap:butt;stroke-linejoin:miter;stroke-miterlimit:4;stroke-opacity:1;stroke-dasharray:none" />
    <path
       d="m 427.17391,428.72087 c -1.0097,7.44408 0.93392,13.33379 13.58696,13.58696 16.58084,0.14029 11.09822,-7.83194 13.58696,-14.40217"
       id="path4151"
       style="fill:none;stroke:#000000;stroke-width:8;stroke-linecap:butt;stroke-linejoin:miter;stroke-miterlimit:4;stroke-opacity:1;stroke-dasharray:none" />
    <path
       d="m 319.19166,609.71949 c 11.19804,-3.32928 20.95994,-10.07617 34.11458,-8.74926 5.93949,0.48013 12.15609,1.32254 19.53335,4.46391 7.499,-2.05182 11.97745,-5.2062 24.21036,-4.82102 4.8777,-0.005 15.23263,3.19254 27.23664,9.99916 -13.65833,3.40032 -26.84436,3.01287 -39.06671,4.28535 -11.25987,2.43428 -14.61745,2.71087 -26.96152,0.17856 -15.61445,0.19527 -30.10287,-2.17214 -39.0667,-5.3567 z"
       id="path4161"
       style="fill:none;stroke:#000000;stroke-width:5.70942879;stroke-linecap:butt;stroke-linejoin:miter;stroke-miterlimit:4;stroke-opacity:1;stroke-dasharray:none" />
    <path
       d="m 328.26087,621.9274 c 36.36221,32.07565 61.96768,18.43512 86.95652,2.17392"
       id="path4163"
       style="fill:none;stroke:#000000;stroke-width:7;stroke-linecap:butt;stroke-linejoin:miter;stroke-miterlimit:4;stroke-opacity:1;stroke-dasharray:none" />
    <path
       d="m 330.43478,526.27523 c -5.53075,13.21935 -7.4265,33.03096 -17.3913,40.21739 -11.7118,11.15913 -16.89741,20.08032 -13.04348,50"
       id="path4165"
       style="fill:none;stroke:#000000;stroke-width:4;stroke-linecap:round;stroke-linejoin:miter;stroke-miterlimit:4;stroke-opacity:1;stroke-dasharray:none" />
    <path
       d="m 416.30434,527.36218 c 5.30434,16.88044 4.53157,31.4758 20.65218,45.65217 9.76776,11.35761 7.72225,30.63848 9.78261,44.56522"
       id="path4167"
       style="fill:none;stroke:#000000;stroke-width:4;stroke-linecap:round;stroke-linejoin:miter;stroke-miterlimit:4;stroke-opacity:1;stroke-dasharray:none" />
    <path
       d="m 349.18478,536.05783 c -3.67468,1.97072 -12.51486,-4.41194 -10.67734,-8.71918 1.61239,-3.77953 4.9777,-7.9196 11.36679,-7.13043 2.78038,0.34342 7.45212,3.44043 13.71273,6.33875 11.119,6.11451 12.01054,4.34733 19.03277,0.77365 0.42701,-0.21731 6.18986,-3.72477 12.11668,-5.58695 5.36139,-1.68453 9.48105,0.75109 12.05132,3.63534 3.62006,4.06229 -2.32137,15.01791 -9.50512,11.50405"
       id="path4171"
       style="fill:none;stroke:#000000;stroke-width:4;stroke-linecap:butt;stroke-linejoin:miter;stroke-miterlimit:4;stroke-opacity:1;stroke-dasharray:none" />
    <path
       d="m 334.7826,533.0687 c -2.64327,5.28962 2.41356,14.72668 17.9348,8.15217"
       id="path4173"
       style="fill:none;stroke:#000000;stroke-width:3;stroke-linecap:butt;stroke-linejoin:miter;stroke-miterlimit:4;stroke-opacity:1;stroke-dasharray:none" />
    <path
       d="m 395.65218,543.66653 c 21.13705,1.40203 14.18272,-5.57288 16.57608,-8.15218"
       id="path4175"
       style="fill:none;stroke:#000000;stroke-width:3;stroke-linecap:butt;stroke-linejoin:miter;stroke-miterlimit:4;stroke-opacity:1;stroke-dasharray:none" />
    <path
       d="m 279.34782,662.14479 c -6.42046,30.17636 -2.09278,61.78737 20.65218,90.2174 28.93029,10.43585 34.82706,52.2102 70.65218,54.34781 33.08414,1.84179 45.71822,-40.58312 75,-53.26086 20.69121,-17.05683 26.60066,-54.58399 21.73912,-84.78261"
       id="path4177"
       style="fill:none;stroke:#000000;stroke-width:10;stroke-linecap:round;stroke-linejoin:miter;stroke-miterlimit:4;stroke-opacity:1;stroke-dasharray:none" />
    <path
       d="m 335.86956,894.75349 c -16.18884,-42.61826 -33.58788,-94.28774 40.29465,-68.61013 81.80463,-20.27783 46.00206,31.17406 34.70535,69.69708"
       id="path4179"
       style="fill:none;stroke:#000000;stroke-width:10;stroke-linecap:round;stroke-linejoin:miter;stroke-miterlimit:4;stroke-opacity:1;stroke-dasharray:none" />
    <path
       d="M 302.82617,900.18051 C 244.4014,826.36002 253.43938,753.94734 241.33862,669.60221"
       id="path4181"
       style="fill:none;stroke:#000000;stroke-width:10;stroke-linecap:round;stroke-linejoin:miter;stroke-miterlimit:4;stroke-opacity:1;stroke-dasharray:none" />
    <path
       d="m 441.17314,894.03175 c 60.24471,-40.13463 49.04113,-139.84106 61.48755,-216.7436"
       id="path4183"
       style="fill:none;stroke:#000000;stroke-width:10;stroke-linecap:round;stroke-linejoin:miter;stroke-miterlimit:4;stroke-opacity:1;stroke-dasharray:none" />
    <path
       d="m 496.51194,654.23032 c 77.44282,68.86818 220.89648,57.60996 229.0411,210.59484"
       id="path4185"
       style="fill:none;stroke:#000000;stroke-width:10;stroke-linecap:round;stroke-linejoin:miter;stroke-miterlimit:4;stroke-opacity:1;stroke-dasharray:none" />
    <path
       d="M 245.95018,643.47 C 159.39178,721.15209 14.755136,734.53789 13.834697,850.99047"
       id="path4187"
       style="fill:none;stroke:#000000;stroke-width:10;stroke-linecap:round;stroke-linejoin:miter;stroke-miterlimit:4;stroke-opacity:1;stroke-dasharray:none" />
  </g>
</svg>
